<svg xmlns="http://www.w3.org/2000/svg" xmlns:xlink="http://www.w3.org/1999/xlink" viewBox="0 0 339.07 320.1"><defs><style>.cls-1{filter:url(#luminosity-noclip);}.cls-2{fill:#58595b;}.cls-3{mask:url(#mask);}.cls-4{fill:#ed1c24;}</style><filter id="luminosity-noclip" x="0" y="0" width="349.36" height="320.1" filterUnits="userSpaceOnUse" color-interpolation-filters="sRGB"><feFlood flood-color="#fff" result="bg"/><feBlend in="SourceGraphic" in2="bg"/></filter><mask id="mask" x="0" y="0" width="349.36" height="320.1" maskUnits="userSpaceOnUse"><path class="cls-1" d="M30,306.67a15.63,15.63,0,0,1-3.91-.49,15.35,15.35,0,0,1-6.42-3.4,15.6,15.6,0,0,1-4-5.63,17.35,17.35,0,0,1-1.34-6.22,22.36,22.36,0,0,1,.95-7.12c.16-.54.34-1.1.54-1.66A29.25,29.25,0,0,1,10,277.46a32.88,32.88,0,0,1-7-11,38.72,38.72,0,0,1-2.6-12.81,51.2,51.2,0,0,1,.58-9.3A72.24,72.24,0,0,1,3,234.85a84.26,84.26,0,0,1,3.41-9.51A79.76,79.76,0,0,1,11.15,216a69.25,69.25,0,0,1,6-8.71,55.9,55.9,0,0,1,7.53-7.68,44.76,44.76,0,0,1,9.23-6,35.79,35.79,0,0,1,11.27-3.33,25.36,25.36,0,0,1,3.26-.2,27.76,27.76,0,0,1,6,.67,24.42,24.42,0,0,1,9.53,4.43,24.76,24.76,0,0,1,7,8.42A27.34,27.34,0,0,1,74,215.46c0,.19,0,.39,0,.59a24.27,24.27,0,0,1,7.06-2,15.63,15.63,0,0,1,1.93-.12,14.22,14.22,0,0,1,6.2,1.4,72.83,72.83,0,0,1,6.9-19.45,51.07,51.07,0,0,1,4.69-7.48,32.48,32.48,0,0,1,6.49-6.5,21.38,21.38,0,0,1,10.15-4.13,19.41,19.41,0,0,1,2.39-.15,16.43,16.43,0,0,1,13.81,7.28,18.9,18.9,0,0,1,2.71,6.34,26.41,26.41,0,0,1,.64,4.94,43.72,43.72,0,0,1-.74,9.53q-.48,2.61-1.2,5.25a13.93,13.93,0,0,1,2.93,2l.6.57q.33-.47.69-.9a20.06,20.06,0,0,1,2.87-3,19.22,19.22,0,0,1,3.94-2.6,18,18,0,0,1,5.85-1.75,23.51,23.51,0,0,1,2.83-.18,17.17,17.17,0,0,1,4.67.62,16.47,16.47,0,0,1,3.54,1.47l.79-.47a22.6,22.6,0,0,1,8.3-2.78,17.12,17.12,0,0,1,2.23-.14,15,15,0,0,1,4.63.7,13.08,13.08,0,0,1,1.12-.84,18.75,18.75,0,0,1,8.42-3.28,15.82,15.82,0,0,1,8.77,1.38,20.22,20.22,0,0,1,2.63-1.41,19.61,19.61,0,0,1,5.38-1.51,17.88,17.88,0,0,1,2.05-.12,15.15,15.15,0,0,1,7,1.66q.62.32,1.2.69c.48-.33,1-.64,1.5-1a30,30,0,0,1,11.69-3.91,32.43,32.43,0,0,1,3.91-.24,29.17,29.17,0,0,1,6.63.75q1.5.36,3,.84a12.61,12.61,0,0,1,.92-.87,14.56,14.56,0,0,1,5.56-3,21.51,21.51,0,0,1,3.27-.65,22.79,22.79,0,0,1,2.72-.18l.81,0a13.53,13.53,0,0,1,2.87.45,18.72,18.72,0,0,1,6.07-1.82,16.4,16.4,0,0,1,2-.12,16,16,0,0,1,3.72.44,15.74,15.74,0,0,1,3.05,1.07c.13-.11.26-.22.4-.32a16.7,16.7,0,0,1,7.69-3.3c.32,0,.65-.09,1-.12.63,0,1.22-.06,1.76-.06a17,17,0,0,1,5.12.72,18.91,18.91,0,0,1,7.24-2.41c.82-.1,16.58-2.59,18.41-2.82a15.63,15.63,0,0,1,1.93-.12,16.17,16.17,0,0,1,5.53,1c.59.22,1.19.46,1.78.72.55-.07,1-.13,1.32-.19l.1,0a13,13,0,0,1,2.8-.67,15.51,15.51,0,0,1,1.9-.12,14,14,0,0,1,11.57,5.95,16.4,16.4,0,0,1,2.89,9,21.16,21.16,0,0,1-.38,5,12.92,12.92,0,0,1-1.11,3.22,15.43,15.43,0,0,1,2.57,2.41,15.67,15.67,0,0,1,2.79,4.89,16.48,16.48,0,0,1,.94,4.92,16.3,16.3,0,0,1-2.54,9.15,25.21,25.21,0,0,1-4,4.82,36.56,36.56,0,0,1-4.48,3.57,44.52,44.52,0,0,1-4.86,2.86,41.26,41.26,0,0,1-5.37,2.26,30.81,30.81,0,0,1-6.07,1.41,12.38,12.38,0,0,1-1.6.1,18.74,18.74,0,0,1-2-.12c-.79-.08-1.7-.23-2.75-.44-.86-.18-1.83-.41-2.94-.7l-.46.06a17.85,17.85,0,0,1-2.18.14c-.41,0-.81,0-1.22-.05a35.61,35.61,0,0,1-3.91,1.7,24.33,24.33,0,0,1-5.53,1.38,18.47,18.47,0,0,1-2.21.14,16.38,16.38,0,0,1-5.69-1c-.67.41-1.34.8-2,1.15a20.85,20.85,0,0,1-7,2.21c-.77.1-1.85-2.77-2.61-2.77l-39.1,6.12c-1.58,1.36-3-.21-4.89.76a23.82,23.82,0,0,1-8.2,2.55,24.28,24.28,0,0,1-3,.19,21.33,21.33,0,0,1-6-.84c-.38.34-.88.77-1.58,1.37-.05.62-.11,1.38-.17,2.3,0,.21,0,.41-.06.62,0,.45-.09.8-.1,1.06s0,.43,0,.65l-.29,3.2a43.5,43.5,0,0,1-.76,5,42.82,42.82,0,0,1-1.46,5.31c-.66,1.88-26.61,18.25-27.7,18.09a20.76,20.76,0,0,1-6.94-2.27,17.9,17.9,0,0,1-6.75-6.39,20,20,0,0,1-2.88-8.57,26.23,26.23,0,0,1,2-12.85l-.32.05a25.07,25.07,0,0,1-2.82.17,18.56,18.56,0,0,1-5.17-.7,16.08,16.08,0,0,1-1.81-.62c-1.26.57-2.52,1.1-3.8,1.58a16.61,16.61,0,0,1-1.21,3.45,17.46,17.46,0,0,1-3,4.45,16.53,16.53,0,0,1-4.4,3.37,16.08,16.08,0,0,1-5.55,1.77,14.68,14.68,0,0,1-1.87.12,15.48,15.48,0,0,1-3.66-.45,14.61,14.61,0,0,1-6.12-3.24,14.93,14.93,0,0,1-3.66-5,23.83,23.83,0,0,1-6.13.85,16.64,16.64,0,0,1-4.59-.62c-1,.48-2.08.9-3.11,1.26a25,25,0,0,1-5.2,1.25c-.69.09-14.32,1.94-17.43,2.32a20.33,20.33,0,0,1-2.32.14,17.29,17.29,0,0,1-6.19-1.11c-.69.38-1.39.74-2.1,1.06a23,23,0,0,1-6.78,1.94,20.63,20.63,0,0,1-2.48.15,19.9,19.9,0,0,1-6-.91c-.35-.11-.69-.22-1-.35-1.57,1.3-3.27,2.58-5.07,3.8a51.07,51.07,0,0,1-6.93,3.89c-1.47.68-3,1.32-4.67,1.89,0,.29,0,.55,0,.78-.08,1.08-.14,1.85-.19,2.33s-.11,1-.16,1.32l-.14.93c0,.14,0,.42-.07.8a19.38,19.38,0,0,1-5.12,11.5A18.43,18.43,0,0,1,38,304.63a17.37,17.37,0,0,1-6,1.92A16.36,16.36,0,0,1,30,306.67Z"/></mask></defs><g id="Layer_2" data-name="Layer 2"><g id="Layer_1-2" data-name="Layer 1"><path class="cls-2" d="M159.84,98.37H148.23V69.43L139,72.73V61.47l20.89-7.83Z"/><path class="cls-2" d="M183.94,68.86c10.42.13,15.86,6.7,15.86,14.66,0,9.1-7.61,15.67-17.65,15.67s-17.59-6.42-17.59-15.26c0-4.28,1.7-8.49,4.6-12.77l11.29-16.83h13.91ZM176.8,83.65a5.11,5.11,0,0,0,5.35,5.29,5.26,5.26,0,1,0,0-10.51A5.1,5.1,0,0,0,176.8,83.65Z"/><path class="cls-2" d="M102.91,150.05H91V122.49L83.88,146H71.14l-7.08-23.47v27.56h-12V106H68.68l8.84,26.49L86.33,106h16.58Z"/><path class="cls-2" d="M120.88,110.34a6.42,6.42,0,1,1-6.41-6.42A6.32,6.32,0,0,1,120.88,110.34ZM120.07,150h-11.2V120.24h11.2Z"/><path class="cls-2" d="M159.05,150.05H125.89V106h12v33h21.21Z"/><path class="cls-2" d="M180.76,133.37v16.68H168.81V133.53L152.2,106h13.71l8.91,16.64L183.69,106H197Z"/><path class="cls-2" d="M240.48,128c0,13.16-9.66,22.85-23.28,22.85s-23.28-9.69-23.28-22.85,9.66-22.84,23.28-22.84S240.48,114.87,240.48,128Zm-34.13,0c0,6.74,4.43,11.39,10.85,11.39s10.86-4.65,10.86-11.39-4.44-11.39-10.86-11.39S206.35,121.29,206.35,128Z"/><path class="cls-2" d="M287,150.05H275.32l-18.15-24.76v24.76h-12V106h11.64L275,130.76V106h12Z"/><path class="cls-2" d="M120.54,162a6.42,6.42,0,1,1-6.42-6.42A6.32,6.32,0,0,1,120.54,162Zm-.82,33.79-11.2,5.85V171.91h11.2Z"/><path class="cls-2" d="M167.32,168l-10.6,5.85a10.64,10.64,0,0,0-9.69-5.57c-6.1,0-10.63,4.66-10.63,11.39,0,7.52,5.22,11.39,10.66,11.39a11.41,11.41,0,0,0,9.95-5.54l9.81,6.86A22.1,22.1,0,0,1,152,202.1L149,211.82h-10.7l3.34-9.85C131,199.74,124,191.18,124,179.7c0-13.4,9.63-22.84,23.25-22.84C155.84,156.86,163.49,161,167.32,168Z"/><path class="cls-2" d="M183.44,162A6.42,6.42,0,1,1,177,155.6,6.32,6.32,0,0,1,183.44,162Zm-.82,39.64h-11.2V171.91h11.2Z"/><path class="cls-2" d="M230.19,201.72H218.55L200.4,177v24.76h-12v-44h11.64l18.15,24.76V157.68h11.95Z"/><g class="cls-3"><path class="cls-4" d="M169.53,320.1l-3.27-1.78C112,288.86,67.76,250.79,38.39,208.21,13.64,172.31,0,134.23,0,101A98.68,98.68,0,0,1,32.33,27.24C51.28,9.93,76.33,0,101,0c34.33,0,58.46,17.78,68.49,26.79C179.56,17.78,203.7,0,238,0c24.71,0,49.75,9.93,68.71,27.24A98.68,98.68,0,0,1,339.07,101c0,33.23-13.64,71.31-38.4,107.21-29.36,42.58-73.58,80.65-127.86,110.11ZM101,13.74c-53.92,0-87.3,45.3-87.3,87.26,0,17.65,4.67,54,36,99.41,27.56,40,68.94,75.87,119.83,104,50.9-28.17,92.28-64.09,119.84-104,31.29-45.38,36-81.76,36-99.41,0-42-33.38-87.26-87.3-87.26-38.66,0-63.11,26.95-63.36,27.23l-5.15,5.78L164.38,41C164.15,40.69,139.69,13.74,101,13.74Z"/></g><path class="cls-4" d="M70.82,251.3a17.44,17.44,0,0,0-3.22,2.41c-1,1-2.08,2-3.13,3.14s-2.14,2.3-3.27,3.55a38.27,38.27,0,0,1-3.66,3.53,49.34,49.34,0,0,1-4.33,3.25A37.13,37.13,0,0,1,48,270.1a44.64,44.64,0,0,1-6.32,2.33A49.71,49.71,0,0,1,34,274a17.84,17.84,0,0,1-8.5-.85,17.6,17.6,0,0,1-6.61-4.28,20.71,20.71,0,0,1-4.36-6.93,26.17,26.17,0,0,1-1.75-8.71,40.1,40.1,0,0,1,.45-7.05A59.38,59.38,0,0,1,15,238.31a69,69,0,0,1,2.9-8.09,67.75,67.75,0,0,1,4-7.89,58,58,0,0,1,5-7.18,44,44,0,0,1,5.88-6,32,32,0,0,1,6.66-4.34,23.44,23.44,0,0,1,7.37-2.18,15.15,15.15,0,0,1,5.09.27,12.12,12.12,0,0,1,4.7,2.18,12.52,12.52,0,0,1,3.51,4.29,15.14,15.14,0,0,1,1.53,6.52,18.46,18.46,0,0,1-.63,5.34,26.48,26.48,0,0,1-2.06,5.35,31.3,31.3,0,0,1-3.18,5,28.13,28.13,0,0,1-4,4.2,23.5,23.5,0,0,1-4.52,3,14.41,14.41,0,0,1-4.75,1.5,9.79,9.79,0,0,1-4.74-.28,2.41,2.41,0,0,1-1.64-2.28c0-.18,0-.41,0-.66s0-.52,0-.8a12,12,0,0,1,0-1.33,5,5,0,0,1,.24-1.27,2.43,2.43,0,0,1,.57-1,1.81,1.81,0,0,1,1.08-.48,2.15,2.15,0,0,1,.73,0l.7.18a8.25,8.25,0,0,0,.93.15,6,6,0,0,0,1.37-.05A12,12,0,0,0,46.05,231a15.12,15.12,0,0,0,4-3.26,16.16,16.16,0,0,0,2.83-4.62,13.25,13.25,0,0,0,1-5.59,10,10,0,0,0-.52-2.94,5.75,5.75,0,0,0-1.43-2.32,6,6,0,0,0-2.47-1.42,8.71,8.71,0,0,0-3.61-.21A12.42,12.42,0,0,0,41,212.33a22.44,22.44,0,0,0-4.44,3.58,34,34,0,0,0-4,5,55.93,55.93,0,0,0-3.42,6,63.91,63.91,0,0,0-2.78,6.58,69.35,69.35,0,0,0-2,6.72,56.08,56.08,0,0,0-1.22,6.41,34.13,34.13,0,0,0-.31,5.62,20.86,20.86,0,0,0,1.11,6.4A11.34,11.34,0,0,0,26.56,263a8.94,8.94,0,0,0,4.08,2.27,14.33,14.33,0,0,0,5.33.25,24.72,24.72,0,0,0,6.81-1.8,36.24,36.24,0,0,0,6-3.26,57.07,57.07,0,0,0,5.43-4.2l5.23-4.59q2.63-2.31,5.34-4.45a39.34,39.34,0,0,1,5.8-3.75ZM36.65,273.87c-.13,2.43-.24,4.38-.31,5.86s-.15,2.63-.21,3.47S36,284.65,36,285s-.08.69-.11.94-.07.53-.12.83-.09.79-.16,1.48a7,7,0,0,1-.61,2.36,7.56,7.56,0,0,1-1.21,1.8,6.06,6.06,0,0,1-1.57,1.21,5,5,0,0,1-1.7.56,3.68,3.68,0,0,1-1.37-.08A2.77,2.77,0,0,1,28,293.5a3.28,3.28,0,0,1-.84-1.21,5,5,0,0,1-.35-1.8,9.67,9.67,0,0,1,.44-3.14,32,32,0,0,1,1.37-3.63q.87-2,2.06-4.29t2.52-5.13A3.59,3.59,0,0,1,34,273a2,2,0,0,1,1.21-.67,1.86,1.86,0,0,1,1.07.15,1,1,0,0,1,.47.89A3.21,3.21,0,0,1,36.65,273.87Z"/><path class="cls-4" d="M102.81,250c-.51.82-1.19,1.79-2,2.92a31.06,31.06,0,0,1-2.89,3.27A21.45,21.45,0,0,1,94.39,259a9.09,9.09,0,0,1-3.78,1.43,5,5,0,0,1-3.89-1,10.58,10.58,0,0,1-2.8-4,20.49,20.49,0,0,1-4.6,4.37,18.72,18.72,0,0,1-3,1.71,10.2,10.2,0,0,1-3.13.9,7.67,7.67,0,0,1-3.26-.29,7.5,7.5,0,0,1-2.86-1.63,8.59,8.59,0,0,1-2-2.91,10.89,10.89,0,0,1-.88-4.09,21.39,21.39,0,0,1,.55-5.47,37.3,37.3,0,0,1,2-6.24,36.64,36.64,0,0,1,3.1-5.95,28,28,0,0,1,3.71-4.55A21.15,21.15,0,0,1,77.9,228a12.5,12.5,0,0,1,4.68-1.61,2.06,2.06,0,0,1,1.27.17,2.53,2.53,0,0,1,.77.63l.61.73a1.5,1.5,0,0,0,.71.48,3.2,3.2,0,0,0,.87.12c.29,0,.58,0,.89-.05l.78-.12.78-.11a4.06,4.06,0,0,1,1,0,1.56,1.56,0,0,1,.82.36,2.11,2.11,0,0,1,.57.93,6,6,0,0,1,.25,1.71,23.07,23.07,0,0,1-.21,3.76c-.19,1.38-.4,2.81-.65,4.27s-.53,3.14-.85,5a24,24,0,0,0-.41,4.69,8.14,8.14,0,0,0,.38,2.47,1.1,1.1,0,0,0,1.3.75,4.09,4.09,0,0,0,1.51-.55,11.14,11.14,0,0,0,1.58-1.16c.52-.46,1-1,1.58-1.53s1-1.14,1.48-1.74q1.64-2.08,3.29-4.65ZM73,251a11.91,11.91,0,0,0,.18,1.73,4.8,4.8,0,0,0,.49,1.47,2.59,2.59,0,0,0,.87,1,1.91,1.91,0,0,0,1.33.25A3.49,3.49,0,0,0,78.15,254,12.34,12.34,0,0,0,79.86,251,20.21,20.21,0,0,0,81,247.6a22.28,22.28,0,0,0,.51-2.89L83.68,233a6.43,6.43,0,0,0-2.75,1.05,12,12,0,0,0-2.48,2.24,19.08,19.08,0,0,0-2.1,3,32.28,32.28,0,0,0-3.07,8.28A15.13,15.13,0,0,0,73,251Z"/><path class="cls-4" d="M108,258.11a4.43,4.43,0,0,1-3.52-1.21,12.71,12.71,0,0,1-3-4,28,28,0,0,1-2.09-6.17,41.56,41.56,0,0,1-.94-7.54,58.16,58.16,0,0,1,.68-9.3c.53-3.9.8-5.86.8-5.86s.44-2,1.31-5.91a69.2,69.2,0,0,1,2.72-9.56,64.92,64.92,0,0,1,3.08-6.88,39.26,39.26,0,0,1,3.56-5.7,19.87,19.87,0,0,1,4-4,9,9,0,0,1,4.29-1.81,5,5,0,0,1,2.67.29,4.05,4.05,0,0,1,1.7,1.44,6.46,6.46,0,0,1,.92,2.19,13.8,13.8,0,0,1,.33,2.59,31,31,0,0,1-.54,6.84,54.91,54.91,0,0,1-1.84,7.15c-.8,2.42-1.73,4.87-2.8,7.33s-2.19,4.92-3.36,7.36-2.35,4.85-3.53,7.22-2.27,4.68-3.26,6.93a7.17,7.17,0,0,0-.33,1q-.18.59-.33,1.26t-.3,1.44c-.09.51-.17,1-.22,1.48v.49a8.39,8.39,0,0,0,.26,1.76,8.75,8.75,0,0,0,.52,1.5,4.09,4.09,0,0,0,.63,1q.33.38.6.33a5.3,5.3,0,0,0,1.54-.47,17.5,17.5,0,0,0,1.82-1c.63-.4,1.29-.85,2-1.34s1.32-1,1.94-1.5c1.46-1.17,3-2.51,4.56-4l3.32,7c-2.07,1.68-4.11,3.2-6.14,4.57-.89.57-1.81,1.15-2.76,1.72s-1.9,1.1-2.86,1.57a23.81,23.81,0,0,1-2.82,1.2A12.14,12.14,0,0,1,108,258.11Zm-.93-27.76c1-2,2-4.26,3.09-6.76s2.11-5.05,3.07-7.68,1.77-5.22,2.45-7.8a37.39,37.39,0,0,0,1.21-7.11c0-.69-.06-1.27-.11-1.75s-.16-.7-.33-.68a3.32,3.32,0,0,0-2,1.58A20.59,20.59,0,0,0,112.4,204a58.44,58.44,0,0,0-2.37,7.71l-1.35,5.3-.76,4.86A60.41,60.41,0,0,0,107.1,230.35Z"/><path class="cls-4" d="M137.84,245.91a69.65,69.65,0,0,1-8.73,8.13c-2.38,1.66-6.27,2.43-7.85,1.94a4.74,4.74,0,0,1-2-1.18,4.9,4.9,0,0,1-1.17-2.09,11.52,11.52,0,0,1-.43-2.84,31.35,31.35,0,0,1,.33-5.19c.26-2,.62-4.06,1.06-6.21s.87-4.29,1.31-6.42.84-4.12,1.22-5.94a3.49,3.49,0,0,1,.91-1.67,6.85,6.85,0,0,1,1.61-1.26,10.31,10.31,0,0,1,3.65-1.24,2.57,2.57,0,0,1,2,.3,1.84,1.84,0,0,1,.57,1.39,9.94,9.94,0,0,1-.3,2.28l-.75,3.39c-.28,1.26-.58,2.63-.9,4.1s-.65,2.92-1,4.37-2.16,11.25,1.52,8.33c.79-.68,5.64-5.23,6.22-5.94Z"/><path class="cls-4" d="M133.51,241.71q1.88-1.94,3.05-3.22a28.6,28.6,0,0,0,2.34-2.93q1.15-1.65,1.83-2.7c.45-.69,1-1.51,1.6-2.47s1.37-2.11,2.25-3.49,2-3.1,3.43-5.16a13.69,13.69,0,0,1,1-1.37,9.2,9.2,0,0,1,1.19-1.23,7.37,7.37,0,0,1,1.46-1,5.62,5.62,0,0,1,1.81-.52,6.62,6.62,0,0,1,2.58.06,2.76,2.76,0,0,1,1.34.74,2,2,0,0,1,.53,1,8.41,8.41,0,0,1,.1,1,3.88,3.88,0,0,1-.59,2,23.94,23.94,0,0,1-1.39,2.16c-.51.7-1,1.35-1.44,1.93a4.08,4.08,0,0,0-.78,1.29,12.54,12.54,0,0,0,.23,2,14.13,14.13,0,0,0,.49,1.72c.2.55.4,1.14.61,1.77s.42,1.35.62,2.18a12.69,12.69,0,0,1,.19,3.49c-.07,1.51-.08,3,0,4.52a23.37,23.37,0,0,1,2.63-1.87l2.94-1.8q1.54-.93,3.15-2a27.22,27.22,0,0,0,3.23-2.58l.31,7.92a35.38,35.38,0,0,1-4.86,3.65,53.11,53.11,0,0,1-5.85,3.23,52,52,0,0,1-6.22,2.48,32.9,32.9,0,0,1-6,1.36,18.38,18.38,0,0,1-3.82.1,9.22,9.22,0,0,1-3.14-.78,5.63,5.63,0,0,1-2.24-1.79,6.28,6.28,0,0,1-1.11-3,7.1,7.1,0,0,1-1,.26l-.92.15a10,10,0,0,1-1,.09,1.62,1.62,0,0,1-.84-.16,1.42,1.42,0,0,1-.58-.68,4,4,0,0,1-.26-1.44,3.32,3.32,0,0,1,.36-1.63,8,8,0,0,1,.93-1.41,12.86,12.86,0,0,1,1.07-1.12Q133.24,242,133.51,241.71Zm4.48,4a1.28,1.28,0,0,1,.94.42c.34.31.75.65,1.2,1a7.56,7.56,0,0,0,1.56,1,3.58,3.58,0,0,0,2,.28,5.06,5.06,0,0,0,2.21-.73,4.32,4.32,0,0,0,1.37-1.39,5.35,5.35,0,0,0,.66-1.86,10,10,0,0,0,.13-2.13,15.92,15.92,0,0,0-.18-1.93,10.76,10.76,0,0,1-.06-2.47,6.43,6.43,0,0,0-.14-2.25c-.17-.52-.32-.95-.45-1.32Zm8.89,3.36c-.09,1.78-.17,3.21-.23,4.29s-.1,1.92-.15,2.54-.07,1.06-.1,1.34-.06.5-.09.69-.05.38-.08.6-.07.58-.12,1.08a5.18,5.18,0,0,1-.45,1.73,5.52,5.52,0,0,1-.88,1.32,4.62,4.62,0,0,1-1.15.89,3.67,3.67,0,0,1-1.25.41,2.77,2.77,0,0,1-1-.06,2,2,0,0,1-.86-.46,2.45,2.45,0,0,1-.62-.89,3.92,3.92,0,0,1-.26-1.32,7.33,7.33,0,0,1,.33-2.29,21.48,21.48,0,0,1,1-2.66c.43-1,.93-2,1.51-3.14s1.19-2.39,1.84-3.76a2.59,2.59,0,0,1,.59-1,1.41,1.41,0,0,1,.89-.49,1.28,1.28,0,0,1,.77.11.68.68,0,0,1,.35.65A2.51,2.51,0,0,1,146.88,249.07Z"/><path class="cls-4" d="M185.63,241.09a33.15,33.15,0,0,1-3,2.85,36.75,36.75,0,0,1-3.91,2.91,35.23,35.23,0,0,1-4.32,2.38,14.34,14.34,0,0,1-4.22,1.25,7.87,7.87,0,0,1-3-.13,4.5,4.5,0,0,1-2-1.18,4.9,4.9,0,0,1-1.17-2.09,11.52,11.52,0,0,1-.43-2.84,31.35,31.35,0,0,1,.33-5.19c.26-2,.62-4.06,1.06-6.21s.87-4.29,1.31-6.42.84-4.12,1.22-5.94a3.49,3.49,0,0,1,.91-1.67,6.85,6.85,0,0,1,1.61-1.26,10.31,10.31,0,0,1,3.65-1.24,2.57,2.57,0,0,1,2,.3,1.86,1.86,0,0,1,.57,1.39,9.88,9.88,0,0,1-.3,2.28l-.75,3.39c-.28,1.26-.58,2.63-.9,4.1s-.65,2.92-1,4.37-.58,2.86-.76,4.23a22.18,22.18,0,0,0-.22,3.66,7.21,7.21,0,0,0,.43,2.46,1.27,1.27,0,0,0,1.46.76,6.29,6.29,0,0,0,2.74-1.22,28.43,28.43,0,0,0,3-2.5c1-.95,2-1.93,2.95-2.94s1.82-1.88,2.56-2.6Z"/><path class="cls-4" d="M197,247.78l.61-4.32a20.11,20.11,0,0,1-3.8,3.16,9.43,9.43,0,0,1-3.89,1.51,7.87,7.87,0,0,1-3.27-.29,7.31,7.31,0,0,1-2.85-1.62,8.54,8.54,0,0,1-2-2.87,10.59,10.59,0,0,1-.87-4.06,34.1,34.1,0,0,1,.22-5.64q.32-2.58.8-6.39a32.28,32.28,0,0,1,1.24-6.06q.75-2.25,1.75-4.59a6.23,6.23,0,0,1,2.2-2.68,6.52,6.52,0,0,1,2.88-1.18,3.29,3.29,0,0,1,2.1.36,2,2,0,0,1,.93,1.8,4.3,4.3,0,0,1-.06.85,5.79,5.79,0,0,1-.25,1,24.35,24.35,0,0,0-.9,4q-.34,2.26-.91,6t-.91,6a20.91,20.91,0,0,0-.28,3.91,11.78,11.78,0,0,0,.18,1.71,4.64,4.64,0,0,0,.49,1.43,2.53,2.53,0,0,0,.87,1,1.9,1.9,0,0,0,1.33.24,3.43,3.43,0,0,0,2.28-1.41,12.66,12.66,0,0,0,1.7-2.94,21.14,21.14,0,0,0,1.12-3.43,22.28,22.28,0,0,0,.51-2.89L200.47,217a5.79,5.79,0,0,1,.9-2.22A8,8,0,0,1,203,213a7.81,7.81,0,0,1,1.91-1.2,6.33,6.33,0,0,1,1.9-.55,3,3,0,0,1,1.81.25,1.5,1.5,0,0,1,.79,1.4,3.69,3.69,0,0,1-.08.75c-.09.63-.2,1.48-.35,2.55s-.31,2.29-.49,3.65-.44,3.28-.77,5.74-.6,4.43-.81,5.93q-.69,5.31-1.4,11.39a27.93,27.93,0,0,0,2.22-1.75,26,26,0,0,0,2.62-2.68q1.44-1.65,3.2-4.09c1.17-1.64,2.48-3.65,3.93-6.06l1.93,7.59a15.88,15.88,0,0,1-1.51,2.39c-.67.87-1.38,1.73-2.14,2.57-1.12,1.2-1.92,2-2.42,2.46-.16.13-1,.91-2.46,2.32q-.68.68-4.47,3.78a3.89,3.89,0,0,0-1.22,2.45q-.28,1.71-.59,6.28c-.1.87-.16,1.55-.18,2-.1,1.14-.2,2.21-.29,3.24a30.4,30.4,0,0,1-.55,3.54,29.25,29.25,0,0,1-1,3.71,20.16,20.16,0,0,1-1.61,3.46,16,16,0,0,1-2.27,3,11.5,11.5,0,0,1-3.07,2.23,12,12,0,0,1-4,1.19,12.84,12.84,0,0,1-3.28,0,8.38,8.38,0,0,1-2.8-.91,5.7,5.7,0,0,1-2.12-2,7.83,7.83,0,0,1-1-3.3,14.82,14.82,0,0,1,1.74-8.08c.8-1.64,1.36-2.79,1.69-3.42s.83-1.56,1.53-2.77a30.44,30.44,0,0,1,2.22-3.26c1.55-2,2.84-3.68,3.85-4.93S195.58,249.25,197,247.78Zm.42,8.43a21.93,21.93,0,0,0-4.6,6.19,44.79,44.79,0,0,0-3.47,8.3c-.69,2.33-.27,3.41,1.26,3.22a5.34,5.34,0,0,0,1.48-.39,3.71,3.71,0,0,0,1.19-.9,8.36,8.36,0,0,0,.92-1.31,11.35,11.35,0,0,0,.82-1.93c.29-.82.54-1.63.75-2.42s.49-1.83.82-3.14a13.92,13.92,0,0,0,.38-2.31c.07-.85.16-1.86.26-3S197.38,256.54,197.41,256.21Z"/><path class="cls-4" d="M237.35,215.13a17.62,17.62,0,0,1,1.66,4.1,23,23,0,0,1,.67,5,20.28,20.28,0,0,1-.3,4.22,22.94,22.94,0,0,1-1.16,4.22,21.79,21.79,0,0,1-1.95,3.93,16.89,16.89,0,0,1-2.7,3.32,14.82,14.82,0,0,1-3.38,2.42,11.45,11.45,0,0,1-3.95,1.23,9.21,9.21,0,0,1-5.26-.71,9.88,9.88,0,0,1-3.68-3.08,14.42,14.42,0,0,1-2.19-4.66,23.55,23.55,0,0,1-.84-5.45,25.59,25.59,0,0,1,.87-8.1,19.35,19.35,0,0,1,3.07-6.22,17,17,0,0,1,5.08-4.52,17.38,17.38,0,0,1,6.87-2.27,17.69,17.69,0,0,1,6.2.27,21.6,21.6,0,0,1,5.49,2.11,20.6,20.6,0,0,1,4.83,3.78q2.25,2.37,4.2,4.51l-.48,5a18.17,18.17,0,0,0-2.62-2.42c-1.1-.85-2.26-1.8-3.5-2.84a25.38,25.38,0,0,0-3.62-2.6c-1.18-.68-2.2-1.26-3-1.71Zm-10,21.58a3.51,3.51,0,0,0,2.25-1.49,12.93,12.93,0,0,0,1.83-3.28,22.05,22.05,0,0,0,1.18-4.61,25.61,25.61,0,0,0,.34-4.7,17.66,17.66,0,0,0-.35-3,8.44,8.44,0,0,0-.81-2.31,3.92,3.92,0,0,0-1.3-1.45,2.68,2.68,0,0,0-1.86-.37,4.28,4.28,0,0,0-2.66,1.55,13.24,13.24,0,0,0-2.14,3.41,21.24,21.24,0,0,0-1.38,4.41,23.21,23.21,0,0,0-.37,5.28,12.94,12.94,0,0,0,.38,2.74,6.61,6.61,0,0,0,.94,2.15,4,4,0,0,0,1.61,1.35A4.31,4.31,0,0,0,227.35,236.71Z"/><path class="cls-4" d="M246.62,233.75c0-1,0-2.24,0-3.61s.18-2.84.32-4.38.32-3.12.53-4.73.49-3.33.85-5.17.65-3.36.91-4.59a27.66,27.66,0,0,1,.8-3.05,8.4,8.4,0,0,1,.51-1.3,2.79,2.79,0,0,1,.62-.79,2.15,2.15,0,0,1,.89-.46,8.35,8.35,0,0,1,1.33-.25,7.8,7.8,0,0,1,1.4-.09,1,1,0,0,1,.76.33,1.75,1.75,0,0,1,.33.93c.05.41.09,1,.11,1.71s0,2.09,0,3.69a37.64,37.64,0,0,0,0,4.18l.38,0c.43-1,1-2.28,1.6-3.88a22.38,22.38,0,0,1,2.05-4.05,13.89,13.89,0,0,1,2.51-2.86,6.21,6.21,0,0,1,3.33-1.45,3.73,3.73,0,0,1,1.29.07,3.16,3.16,0,0,1,1.11.52,2.68,2.68,0,0,1,.78.94,3.2,3.2,0,0,1,.33,1.35,12,12,0,0,1-.12,1.68c-.09.73-.24,1.68-.46,2.85s-.36,2.14-.45,2.89a12.13,12.13,0,0,0-.11,1.86,7.54,7.54,0,0,0,.31,2.07,3.7,3.7,0,0,0,.69,1.27,2,2,0,0,0,.93.61,2.68,2.68,0,0,0,1.06.08,8.78,8.78,0,0,0,3.2-1.1,22.67,22.67,0,0,0,3-1.95,33.54,33.54,0,0,0,3.11-2.7l-.24,8.26-2,1.58q-1.12.87-2.4,1.68a20.55,20.55,0,0,1-2.66,1.42,10.38,10.38,0,0,1-2.84.79,7.1,7.1,0,0,1-4.23-.56,6.83,6.83,0,0,1-2.63-2.49,13.19,13.19,0,0,1-1.52-3.71c-.35-1.4-.64-2.83-.88-4.27l-.55.07L255,235.32a24.7,24.7,0,0,1-.84,2.37,9.24,9.24,0,0,1-.83,1.56,2.85,2.85,0,0,1-2.08,1.27,3.65,3.65,0,0,1-2.31-.33,3.56,3.56,0,0,1-1.39-1.48,7.2,7.2,0,0,1-.7-2.27A22.92,22.92,0,0,1,246.62,233.75Z"/><path class="cls-4" d="M301.61,201.57c0,.64,0,1.5,0,2.59a25.4,25.4,0,0,1-.3,3.6l-.69,4.77c-.27,1.86-.5,3.4-.67,4.62s-.34,2.29-.47,3.2a13.72,13.72,0,0,0-.18,2c0,.66.05,1.26.09,1.81a7.39,7.39,0,0,0,.23,1.42,1.9,1.9,0,0,0,.5.89,1.11,1.11,0,0,0,.93.22,6,6,0,0,0,1.84-.61,20.88,20.88,0,0,0,2.28-1.32c.8-.54,1.62-1.13,2.46-1.79s1.63-1.33,2.38-2,1.44-1.39,2-2.07a15.7,15.7,0,0,0,1.48-1.85q0,1.15.09,2.1c0,.63.07,1.24.09,1.81s0,1.17.07,1.77.07,1.29.09,2a21,21,0,0,1-1.83,1.85q-1.09,1-2.43,2t-2.85,2c-1,.66-2,1.25-3.05,1.78a26.16,26.16,0,0,1-3,1.34,12.2,12.2,0,0,1-2.74.71,4,4,0,0,1-3.87-1.51,8.24,8.24,0,0,1-1.2-2.08,22.36,22.36,0,0,1-.9-2.79,31.7,31.7,0,0,1-2.53,3.31,25,25,0,0,1-2.74,2.72,16,16,0,0,1-2.86,1.93,8.63,8.63,0,0,1-2.84.92,6,6,0,0,1-2.16-.12,4,4,0,0,1-1.82-1.08,5.92,5.92,0,0,1-1.31-2.25,12.55,12.55,0,0,1-.57-3.63,30.1,30.1,0,0,1,.44-7.12,79,79,0,0,0,1.57-10.89c.05-.35.12-.84.21-1.45a14.66,14.66,0,0,1,.42-2,19.53,19.53,0,0,1,.74-2.24,11.5,11.5,0,0,1,1.07-2.1,6.61,6.61,0,0,1,1.49-1.62,4.18,4.18,0,0,1,2-.84,5.44,5.44,0,0,1,2.65.27,1.36,1.36,0,0,1,.84,1.18q-.23,2.4-.54,4.62c-.21,1.48-.42,3-.63,4.49s-.45,3.18-.7,5-.47,3.32-.62,4.43-.28,2-.38,2.7-.14,1-.14,1.07a6.08,6.08,0,0,0,.16,1.23,3.75,3.75,0,0,0,.41,1,1.93,1.93,0,0,0,.65.68,1.38,1.38,0,0,0,.91.18,3.62,3.62,0,0,0,1.55-.6,5.87,5.87,0,0,0,1.45-1.38,7.8,7.8,0,0,0,1.23-2,10.73,10.73,0,0,0,.74-2.67l3.15-19.55a2.46,2.46,0,0,1,1.31-1.58,6.52,6.52,0,0,1,2.67-.91,4.81,4.81,0,0,1,2.73.3A1.67,1.67,0,0,1,301.61,201.57Z"/><path class="cls-4" d="M306.62,227.43a2.88,2.88,0,0,1,.23-1.33,4.8,4.8,0,0,1,.69-1.06c.29-.34.63-.7,1-1.07a11.52,11.52,0,0,0,1.17-1.33l10.57-16.91c-.42-.14-.78-.27-1.09-.4l-.83-.34a3.11,3.11,0,0,0-1.59-.22c-.74.09-1.35.18-1.83.26a4.38,4.38,0,0,0-1.22.39,2.91,2.91,0,0,0-.88.73,8.38,8.38,0,0,0-.85,1.27,21,21,0,0,1-1.71,2.62A2.25,2.25,0,0,1,309,211a.73.73,0,0,1-.8-.41,3.26,3.26,0,0,1-.27-1.32,6.5,6.5,0,0,1,0-.76c0-.27,0-.55.07-.84a18.7,18.7,0,0,1,1.32-5.11,10.66,10.66,0,0,1,2.06-3.19,7.28,7.28,0,0,1,2.45-1.71,9.27,9.27,0,0,1,2.39-.66,3.62,3.62,0,0,1,1.68.2c.56.21,1.12.44,1.68.71a16.68,16.68,0,0,0,1.69.7,4.08,4.08,0,0,0,1.76.23c.47,0,.89-.07,1.27-.11l1.06-.13c.92-.12,1.66-.23,2.21-.33s1-.2,1.26-.28a4.48,4.48,0,0,0,.6-.2,1.24,1.24,0,0,1,.28-.09,1.74,1.74,0,0,1,1.78.66,4.29,4.29,0,0,1,.62,2.31,8.92,8.92,0,0,1-.14,2.09,1.92,1.92,0,0,1-.67.81,7.29,7.29,0,0,1-2.05,1.09A25.16,25.16,0,0,1,328,207c-.62,1-1.33,2.17-2.13,3.43s-1.69,2.69-2.66,4.29-1.86,3-2.64,4.15l-2,3.07c-.59.86-1,1.45-1.18,1.76l-.14.73.63.17c.4.12.86.25,1.4.38s1.11.25,1.7.35a6,6,0,0,0,1.55.06,8.19,8.19,0,0,0,2.64-.77,12.74,12.74,0,0,0,2.17-1.39,21.58,21.58,0,0,0,1.86-1.67q.86-.87,1.65-1.65a11.35,11.35,0,0,1,1.57-1.31A3.54,3.54,0,0,1,334,218a2.14,2.14,0,0,1,1.21.17,2.51,2.51,0,0,1,.93.71,3.36,3.36,0,0,1,.59,1,4.13,4.13,0,0,1,.24,1.2,3.9,3.9,0,0,1-.69,2.15,12.34,12.34,0,0,1-2,2.35,23.24,23.24,0,0,1-2.92,2.31,31,31,0,0,1-3.49,2.05,27.74,27.74,0,0,1-3.74,1.58,18.25,18.25,0,0,1-3.6.85,4.81,4.81,0,0,1-.73,0c-.4-.05-.92-.13-1.58-.27s-1.41-.31-2.28-.54-1.81-.55-2.85-.94a8.38,8.38,0,0,1-2.27.69,4.22,4.22,0,0,1-1.81-.13,3.16,3.16,0,0,1-1.3-.81,3.58,3.58,0,0,1-.79-1.28A5.29,5.29,0,0,1,306.62,227.43Z"/></g></g></svg>